<svg xmlns="http://www.w3.org/2000/svg" width="26" height="25" viewBox="0 0 26 25" fill="none">
  <path fill="#ffffff" d="M25.738 12.031h-9.86l9.153-3.664-.383-.965-9.305 3.727 7.086-7.09-.734-.73-6.973 6.972 3.883-9.063-.949-.41-3.949 9.211V0h-1.035v9.859L9.008.707 8.043 1.09l3.727 9.305L4.68 3.309l-.734.73 6.973 6.973L1.859 7.133l-.414.95 9.215 3.949H.641v1.035h9.855l-9.148 3.664.379.965 9.309-3.727-7.09 7.09.734.734 6.973-6.973-3.879 9.059.949.414 3.949-9.215v10.02h1.035V15.24l3.664 9.148.961-.379-3.723-9.309 7.086 7.09.734-.734-6.973-6.973 9.062 3.879.41-.949-9.211-3.949h10.02z"/>
</svg>
