<?xml version="1.0" encoding="UTF-8"?>
<svg id="Layer_1" data-name="Layer 1" xmlns="http://www.w3.org/2000/svg" viewBox="0 0 300 90">
  <defs>
    <style>
      .cls-1 {
        fill: #5700ff;
      }

      .cls-2 {
        fill: #02d7ff;
      }

      .cls-3 {
        fill: #009cdd;
      }
    </style>
  </defs>
  <path class="cls-2" d="M31.51,45.27v29.63c0,.27-.3.43-.52.28l-19.57-12.95c-2.35-1.56-3.78-4.27-3.78-7.16v-26.81c0-1.15.93-2.08,2.08-2.08.14,0,.28.02.4.04.14.02.26.06.4.12.02.02.04.02.06.02.12.06.22.12.32.18l16.26,10.68c2.71,1.78,4.34,4.8,4.34,8.04Z"/>
  <path class="cls-1" d="M77.88,17.11l-16.27-10.68c-.1-.06-.2-.12-.32-.18-.02,0-.04,0-.06-.02-.14-.06-.26-.1-.4-.12-.12-.02-.26-.04-.4-.04-1.15,0-2.08.93-2.08,2.08v67.2c0,.3.33.48.58.32l9.98-6.33,7.92-5.02c3.36-2.13,5.39-5.83,5.39-9.8v-29.38c0-3.23-1.63-6.25-4.33-8.02Z"/>
  <path class="cls-3" d="M56.86,65.7v-26.25c0-3.24-1.63-6.26-4.34-8.04l-16.26-10.68c-.1-.06-.2-.12-.32-.18-.02,0-.04,0-.06-.02-.14-.06-.26-.1-.4-.12-.12-.02-.26-.04-.4-.04-1.15,0-2.08.93-2.08,2.08v26.81s0,.01,0,.02v26.96c0,.08.03.21.11.35.07.14.17.22.23.27l9.67,6.48c1.17.79,2.71.8,3.89.03l9.63-6.27c.22-.14.35-.39.35-.65v-10.73s0-.01,0-.02Z"/>
  <g>
    <path d="M120.75,50.35c0,6.88-6.12,9.58-11.74,9.58-8.82,0-12.69-4.86-13.54-10.3h5.13c.94,3.64,3.38,5.54,8.37,5.54,4.23,0,6.66-1.67,6.66-4.59s-2.56-3.42-8.41-4.73c-6.12-1.35-10.89-3.06-10.89-8.95,0-6.25,5.54-9.54,11.56-9.54,7.92,0,11.56,4.09,12.46,9.09h-5.13c-.9-2.61-3.06-4.32-7.29-4.32s-6.52,1.89-6.52,4.63c0,2.25,1.8,2.97,7.02,4.09,7.96,1.75,12.33,3.42,12.33,9.49Z"/>
    <path d="M148.74,34.65l-16.38,36h-5.44l6.52-14.4-9.76-21.6h5.44l7.02,16.11,7.15-16.11h5.44Z"/>
    <path d="M175.07,43.78v15.61h-5.08v-14.58c0-3.83-1.67-5.85-5.4-5.85-4.36,0-6.7,2.83-6.7,7.6v12.82h-5.08v-24.75h5.08v4.09c1.75-2.88,4.41-4.63,8.28-4.63,5.58,0,8.91,3.64,8.91,9.67Z"/>
    <path d="M205.13,34.65v24.75h-5.08v-4.14c-1.8,2.83-4.77,4.68-8.64,4.68-6.62,0-11.43-5.35-11.43-12.91s4.9-12.92,11.38-12.92c3.91,0,6.88,1.93,8.68,4.77v-4.23h5.08ZM200.09,47.02c0-4.73-3.29-8.05-7.61-8.05s-7.38,3.33-7.38,8.05,3.1,8.05,7.38,8.05,7.61-3.29,7.61-8.05Z"/>
    <path d="M236.45,47.02c0,7.56-4.81,12.91-11.43,12.91-3.87,0-6.84-1.89-8.64-4.68v15.39h-5.08v-36h5.08v4.23c1.8-2.83,4.77-4.77,8.68-4.77,6.48,0,11.38,5.35,11.38,12.92ZM231.32,47.02c0-4.73-3.06-8.05-7.38-8.05s-7.61,3.33-7.61,8.05,3.29,8.05,7.61,8.05,7.38-3.29,7.38-8.05Z"/>
    <path d="M240.36,51.43h5.17c.76,2.75,2.79,4,7.06,4,3.29,0,5.31-.99,5.31-2.83,0-2.07-2.34-2.38-6.48-3.37-6.93-1.71-9.85-3.1-9.85-7.24,0-5,4.23-7.88,10.44-7.88s9.9,3.01,10.8,7.51h-5.13c-.72-2.02-2.61-3.01-5.76-3.01s-5.22,1.12-5.22,2.83c0,1.58,1.53,1.98,5.85,3.01,6.71,1.58,10.58,2.75,10.58,7.56,0,5.31-4.77,7.92-10.62,7.92-6.52,0-11.2-3.15-12.15-8.5Z"/>
    <path d="M292.34,48.42h-20.11c.4,4.54,3.6,7.06,7.74,7.06,2.97,0,5.45-1.26,6.62-3.69h5.26c-1.94,5.53-6.66,8.14-11.92,8.14-7.51,0-12.87-5.4-12.87-12.87s5.31-12.96,12.78-12.96c7.96,0,13,6.17,12.51,14.31ZM272.49,44.28h14.4c-.76-3.37-3.33-5.76-7.06-5.76s-6.48,2.43-7.33,5.76Z"/>
  </g>
</svg>