<svg xmlns="http://www.w3.org/2000/svg" xmlns:xlink="http://www.w3.org/1999/xlink" width="600" zoomAndPan="magnify" viewBox="0 0 450 149.999998" height="200" preserveAspectRatio="xMidYMid meet" version="1.0"><defs><g/><clipPath id="9317ef10c0"><path d="M 32.28125 50 L 64 50 L 64 115 L 32.28125 115 Z M 32.28125 50 " clip-rule="nonzero"/></clipPath><clipPath id="2bdd756dba"><path d="M 99 24 L 130.53125 24 L 130.53125 115 L 99 115 Z M 99 24 " clip-rule="nonzero"/></clipPath></defs><g fill="#ffffff" fill-opacity="1"><g transform="translate(151.68833, 95.400011)"><g><path d="M 19.703125 0.984375 C 16.597656 0.984375 13.929688 0.582031 11.703125 -0.21875 C 9.484375 -1.019531 7.671875 -2.09375 6.265625 -3.4375 C 4.859375 -4.78125 3.820312 -6.273438 3.15625 -7.921875 C 2.488281 -9.578125 2.15625 -11.253906 2.15625 -12.953125 L 10.0625 -12.953125 C 10.0625 -11.617188 10.4375 -10.398438 11.1875 -9.296875 C 11.9375 -8.203125 13.03125 -7.328125 14.46875 -6.671875 C 15.90625 -6.015625 17.640625 -5.6875 19.671875 -5.6875 C 26.085938 -5.6875 29.296875 -7.832031 29.296875 -12.125 C 29.296875 -13.457031 28.878906 -14.539062 28.046875 -15.375 C 27.222656 -16.207031 26.070312 -16.882812 24.59375 -17.40625 C 23.113281 -17.925781 21.367188 -18.375 19.359375 -18.75 C 17.921875 -19.050781 16.441406 -19.410156 14.921875 -19.828125 C 13.410156 -20.253906 11.960938 -20.785156 10.578125 -21.421875 C 9.191406 -22.054688 7.945312 -22.835938 6.84375 -23.765625 C 5.75 -24.703125 4.878906 -25.828125 4.234375 -27.140625 C 3.585938 -28.453125 3.265625 -30.003906 3.265625 -31.796875 C 3.265625 -34.148438 3.832031 -36.253906 4.96875 -38.109375 C 6.101562 -39.972656 7.863281 -41.453125 10.25 -42.546875 C 12.644531 -43.640625 15.703125 -44.1875 19.421875 -44.1875 C 23.015625 -44.1875 26.015625 -43.644531 28.421875 -42.5625 C 30.828125 -41.476562 32.632812 -39.960938 33.84375 -38.015625 C 35.0625 -36.078125 35.671875 -33.816406 35.671875 -31.234375 L 27.765625 -31.234375 C 27.765625 -32.347656 27.46875 -33.359375 26.875 -34.265625 C 26.289062 -35.179688 25.378906 -35.910156 24.140625 -36.453125 C 22.898438 -36.992188 21.296875 -37.265625 19.328125 -37.265625 C 17.703125 -37.265625 16.359375 -37.109375 15.296875 -36.796875 C 14.242188 -36.492188 13.414062 -36.078125 12.8125 -35.546875 C 12.207031 -35.015625 11.78125 -34.421875 11.53125 -33.765625 C 11.289062 -33.109375 11.171875 -32.441406 11.171875 -31.765625 C 11.171875 -29.972656 12.066406 -28.597656 13.859375 -27.640625 C 15.660156 -26.691406 18.375 -25.921875 22 -25.328125 C 23.988281 -24.960938 25.894531 -24.46875 27.71875 -23.84375 C 29.550781 -23.226562 31.1875 -22.414062 32.625 -21.40625 C 34.0625 -20.40625 35.195312 -19.140625 36.03125 -17.609375 C 36.875 -16.085938 37.296875 -14.25 37.296875 -12.09375 C 37.296875 -9.300781 36.566406 -6.929688 35.109375 -4.984375 C 33.660156 -3.035156 31.617188 -1.550781 28.984375 -0.53125 C 26.359375 0.476562 23.265625 0.984375 19.703125 0.984375 Z M 19.703125 0.984375 "/></g></g></g><g fill="#ffffff" fill-opacity="1"><g transform="translate(190.975597, 95.400011)"><g><path d="M 7.046875 11.140625 L 1.5625 11.140625 L 1.5625 4.796875 L 6.984375 4.796875 C 8.128906 4.796875 9.066406 4.609375 9.796875 4.234375 C 10.523438 3.867188 11.140625 3.300781 11.640625 2.53125 C 12.148438 1.769531 12.628906 0.789062 13.078125 -0.40625 L 13.453125 -1.53125 L 0.953125 -32.625 L 9.046875 -32.625 L 16.71875 -12.890625 L 17.546875 -9.515625 L 18.40625 -12.859375 L 25.96875 -32.59375 L 34.15625 -32.625 L 21.421875 -0.734375 C 20.472656 1.703125 19.519531 3.695312 18.5625 5.25 C 17.613281 6.800781 16.59375 8.003906 15.5 8.859375 C 14.414062 9.722656 13.191406 10.316406 11.828125 10.640625 C 10.460938 10.972656 8.867188 11.140625 7.046875 11.140625 Z M 7.046875 11.140625 "/></g></g></g><g fill="#ffffff" fill-opacity="1"><g transform="translate(225.407492, 95.400011)"><g><path d="M 12.1875 0 L 4.5 0 L 4.5 -32.625 L 11.8125 -32.625 L 11.8125 -27.546875 C 12.445312 -28.734375 13.3125 -29.78125 14.40625 -30.6875 C 15.507812 -31.601562 16.789062 -32.316406 18.25 -32.828125 C 19.707031 -33.347656 21.273438 -33.609375 22.953125 -33.609375 C 27.328125 -33.609375 30.601562 -32.21875 32.78125 -29.4375 C 34.96875 -26.65625 36.0625 -22.703125 36.0625 -17.578125 L 36.0625 0 L 28.375 0 L 28.375 -17.421875 C 28.375 -20.660156 27.695312 -22.988281 26.34375 -24.40625 C 24.988281 -25.820312 23.148438 -26.53125 20.828125 -26.53125 C 19.316406 -26.53125 17.90625 -26.148438 16.59375 -25.390625 C 15.28125 -24.628906 14.21875 -23.519531 13.40625 -22.0625 C 12.59375 -20.601562 12.1875 -18.800781 12.1875 -16.65625 Z M 12.1875 0 "/></g></g></g><g fill="#ffffff" fill-opacity="1"><g transform="translate(265.710262, 95.400011)"><g><path d="M 17.546875 0.984375 C 15.347656 0.984375 13.3125 0.539062 11.4375 -0.34375 C 9.570312 -1.238281 7.941406 -2.476562 6.546875 -4.0625 C 5.160156 -5.644531 4.085938 -7.484375 3.328125 -9.578125 C 2.566406 -11.679688 2.1875 -13.925781 2.1875 -16.3125 C 2.1875 -18.707031 2.570312 -20.945312 3.34375 -23.03125 C 4.113281 -25.113281 5.191406 -26.945312 6.578125 -28.53125 C 7.972656 -30.113281 9.597656 -31.351562 11.453125 -32.25 C 13.316406 -33.15625 15.335938 -33.609375 17.515625 -33.609375 C 20.179688 -33.609375 22.550781 -33.03125 24.625 -31.875 C 26.695312 -30.726562 28.253906 -29.140625 29.296875 -27.109375 L 29.296875 -32.625 L 36.59375 -32.625 L 36.59375 0 L 29.296875 0 L 29.296875 -5.484375 C 28.234375 -3.453125 26.671875 -1.863281 24.609375 -0.71875 C 22.546875 0.414062 20.191406 0.984375 17.546875 0.984375 Z M 19.390625 -6.125 C 20.722656 -6.125 21.972656 -6.382812 23.140625 -6.90625 C 24.304688 -7.425781 25.328125 -8.144531 26.203125 -9.0625 C 27.078125 -9.976562 27.757812 -11.054688 28.25 -12.296875 C 28.738281 -13.535156 28.984375 -14.875 28.984375 -16.3125 C 28.984375 -17.726562 28.734375 -19.054688 28.234375 -20.296875 C 27.734375 -21.535156 27.050781 -22.617188 26.1875 -23.546875 C 25.320312 -24.484375 24.304688 -25.207031 23.140625 -25.71875 C 21.972656 -26.238281 20.722656 -26.5 19.390625 -26.5 C 17.640625 -26.5 16.035156 -26.078125 14.578125 -25.234375 C 13.128906 -24.390625 11.972656 -23.203125 11.109375 -21.671875 C 10.242188 -20.148438 9.8125 -18.363281 9.8125 -16.3125 C 9.8125 -14.195312 10.25 -12.375 11.125 -10.84375 C 12 -9.320312 13.164062 -8.15625 14.625 -7.34375 C 16.09375 -6.53125 17.679688 -6.125 19.390625 -6.125 Z M 19.390625 -6.125 "/></g></g></g><g fill="#ffffff" fill-opacity="1"><g transform="translate(306.806394, 95.400011)"><g><path d="M 12.1875 11.140625 L 4.5 11.140625 L 4.5 -32.625 L 11.8125 -32.625 L 11.8125 -27.140625 C 12.988281 -29.109375 14.5625 -30.671875 16.53125 -31.828125 C 18.5 -32.992188 20.660156 -33.578125 23.015625 -33.578125 C 25.335938 -33.578125 27.46875 -33.125 29.40625 -32.21875 C 31.34375 -31.320312 33.019531 -30.085938 34.4375 -28.515625 C 35.851562 -26.941406 36.953125 -25.113281 37.734375 -23.03125 C 38.515625 -20.945312 38.90625 -18.707031 38.90625 -16.3125 C 38.90625 -13.925781 38.515625 -11.679688 37.734375 -9.578125 C 36.953125 -7.484375 35.847656 -5.644531 34.421875 -4.0625 C 32.992188 -2.476562 31.320312 -1.238281 29.40625 -0.34375 C 27.488281 0.539062 25.390625 0.984375 23.109375 0.984375 C 21.515625 0.984375 20.007812 0.722656 18.59375 0.203125 C 17.175781 -0.316406 15.90625 -1.046875 14.78125 -1.984375 C 13.664062 -2.921875 12.75 -4.015625 12.03125 -5.265625 L 12.1875 -1.484375 Z M 21.703125 -6.09375 C 23.441406 -6.09375 25.035156 -6.503906 26.484375 -7.328125 C 27.929688 -8.148438 29.09375 -9.328125 29.96875 -10.859375 C 30.851562 -12.398438 31.296875 -14.21875 31.296875 -16.3125 C 31.296875 -18.363281 30.859375 -20.148438 29.984375 -21.671875 C 29.117188 -23.203125 27.960938 -24.390625 26.515625 -25.234375 C 25.066406 -26.078125 23.453125 -26.5 21.671875 -26.5 C 20.335938 -26.5 19.09375 -26.238281 17.9375 -25.71875 C 16.789062 -25.207031 15.773438 -24.484375 14.890625 -23.546875 C 14.015625 -22.617188 13.328125 -21.539062 12.828125 -20.3125 C 12.335938 -19.082031 12.09375 -17.75 12.09375 -16.3125 C 12.09375 -14.832031 12.34375 -13.46875 12.84375 -12.21875 C 13.351562 -10.96875 14.050781 -9.878906 14.9375 -8.953125 C 15.832031 -8.035156 16.859375 -7.328125 18.015625 -6.828125 C 19.179688 -6.335938 20.410156 -6.09375 21.703125 -6.09375 Z M 21.703125 -6.09375 "/></g></g></g><g fill="#ffffff" fill-opacity="1"><g transform="translate(347.902537, 95.400011)"><g><path d="M 16.25 0.984375 C 13.851562 0.984375 11.769531 0.664062 10 0.03125 C 8.238281 -0.601562 6.78125 -1.457031 5.625 -2.53125 C 4.476562 -3.613281 3.625 -4.832031 3.0625 -6.1875 C 2.5 -7.539062 2.21875 -8.9375 2.21875 -10.375 L 9.578125 -10.34375 C 9.648438 -8.863281 10.242188 -7.617188 11.359375 -6.609375 C 12.484375 -5.609375 14.132812 -5.109375 16.3125 -5.109375 C 18.300781 -5.109375 19.765625 -5.488281 20.703125 -6.25 C 21.648438 -7.007812 22.125 -8.003906 22.125 -9.234375 C 22.125 -10.160156 21.859375 -10.890625 21.328125 -11.421875 C 20.796875 -11.953125 20.015625 -12.367188 18.984375 -12.671875 C 17.960938 -12.984375 16.710938 -13.242188 15.234375 -13.453125 C 13.671875 -13.671875 12.1875 -14 10.78125 -14.4375 C 9.375 -14.882812 8.128906 -15.5 7.046875 -16.28125 C 5.960938 -17.0625 5.109375 -18.046875 4.484375 -19.234375 C 3.867188 -20.421875 3.5625 -21.859375 3.5625 -23.546875 C 3.5625 -25.554688 4.03125 -27.3125 4.96875 -28.8125 C 5.90625 -30.320312 7.289062 -31.5 9.125 -32.34375 C 10.957031 -33.1875 13.195312 -33.609375 15.84375 -33.609375 C 18.457031 -33.609375 20.753906 -33.171875 22.734375 -32.296875 C 24.710938 -31.421875 26.253906 -30.191406 27.359375 -28.609375 C 28.460938 -27.035156 29.015625 -25.210938 29.015625 -23.140625 L 21.484375 -23.203125 C 21.398438 -24.410156 20.882812 -25.398438 19.9375 -26.171875 C 19 -26.941406 17.644531 -27.328125 15.875 -27.328125 C 14.21875 -27.328125 13.007812 -26.972656 12.25 -26.265625 C 11.488281 -25.554688 11.109375 -24.703125 11.109375 -23.703125 C 11.109375 -22.898438 11.285156 -22.25 11.640625 -21.75 C 12.003906 -21.257812 12.675781 -20.847656 13.65625 -20.515625 C 14.644531 -20.191406 16.070312 -19.878906 17.9375 -19.578125 C 19.625 -19.328125 21.195312 -18.988281 22.65625 -18.5625 C 24.113281 -18.144531 25.390625 -17.570312 26.484375 -16.84375 C 27.578125 -16.113281 28.429688 -15.171875 29.046875 -14.015625 C 29.660156 -12.859375 29.96875 -11.414062 29.96875 -9.6875 C 29.96875 -7.289062 29.367188 -5.300781 28.171875 -3.71875 C 26.972656 -2.144531 25.34375 -0.96875 23.28125 -0.1875 C 21.21875 0.59375 18.875 0.984375 16.25 0.984375 Z M 16.25 0.984375 "/></g></g></g><g fill="#ffffff" fill-opacity="1"><g transform="translate(379.700448, 95.400011)"><g><path d="M 35.546875 -16.890625 C 35.546875 -16.484375 35.535156 -16.097656 35.515625 -15.734375 C 35.492188 -15.378906 35.453125 -14.894531 35.390625 -14.28125 L 9.90625 -14.28125 C 10.175781 -12.5 10.738281 -10.984375 11.59375 -9.734375 C 12.457031 -8.492188 13.519531 -7.539062 14.78125 -6.875 C 16.050781 -6.207031 17.441406 -5.875 18.953125 -5.875 C 20.898438 -5.875 22.472656 -6.257812 23.671875 -7.03125 C 24.878906 -7.800781 25.757812 -8.875 26.3125 -10.25 L 34.6875 -10.25 C 34.289062 -8.789062 33.628906 -7.382812 32.703125 -6.03125 C 31.785156 -4.675781 30.660156 -3.472656 29.328125 -2.421875 C 27.992188 -1.378906 26.460938 -0.550781 24.734375 0.0625 C 23.015625 0.675781 21.140625 0.984375 19.109375 0.984375 C 16.648438 0.984375 14.390625 0.535156 12.328125 -0.359375 C 10.265625 -1.265625 8.476562 -2.507812 6.96875 -4.09375 C 5.457031 -5.675781 4.28125 -7.515625 3.4375 -9.609375 C 2.601562 -11.710938 2.1875 -13.945312 2.1875 -16.3125 C 2.1875 -18.707031 2.601562 -20.945312 3.4375 -23.03125 C 4.28125 -25.113281 5.457031 -26.945312 6.96875 -28.53125 C 8.476562 -30.113281 10.265625 -31.351562 12.328125 -32.25 C 14.390625 -33.15625 16.648438 -33.609375 19.109375 -33.609375 C 21.554688 -33.609375 23.789062 -33.160156 25.8125 -32.265625 C 27.832031 -31.378906 29.566406 -30.160156 31.015625 -28.609375 C 32.472656 -27.054688 33.59375 -25.273438 34.375 -23.265625 C 35.15625 -21.253906 35.546875 -19.128906 35.546875 -16.890625 Z M 10.21875 -20.21875 L 27.703125 -20.21875 C 27.597656 -21.445312 27.144531 -22.5625 26.34375 -23.5625 C 25.539062 -24.570312 24.503906 -25.382812 23.234375 -26 C 21.960938 -26.613281 20.578125 -26.921875 19.078125 -26.921875 C 17.785156 -26.921875 16.546875 -26.679688 15.359375 -26.203125 C 14.171875 -25.722656 13.128906 -24.988281 12.234375 -24 C 11.335938 -23.019531 10.664062 -21.757812 10.21875 -20.21875 Z M 10.21875 -20.21875 "/></g></g></g><g clip-path="url(#9317ef10c0)"><path fill="#01d7ff" d="M 58.449219 64.726562 C 57.84375 64.21875 38.78125 51.664062 36.902344 50.664062 C 34.542969 49.414062 32.53125 50.765625 32.371094 53.515625 C 32.332031 54.15625 32.539062 84.828125 32.550781 86.894531 C 32.296875 90.9375 33.503906 94.441406 36.359375 97.347656 C 37.746094 98.769531 63.195312 114.78125 63.222656 114.730469 C 63.640625 114.347656 63.796875 80.644531 63.511719 78.75 C 64.242188 73.199219 62.867188 68.410156 58.449219 64.726562 Z M 58.449219 64.726562 " fill-opacity="1" fill-rule="nonzero"/></g><path fill="#048fcb" d="M 97.007812 113.363281 C 97.046875 108.101562 97.125 67.808594 97.105469 67.402344 C 96.921875 62.839844 95.066406 59.058594 91.285156 56.535156 C 84.765625 52.1875 70.414062 43.253906 69.9375 43.070312 C 69.386719 42.820312 68.859375 42.71875 68.375 42.738281 C 67.933594 42.746094 67.546875 42.855469 67.21875 43.074219 C 66.351562 43.582031 65.769531 44.625 65.6875 46.046875 C 65.65625 46.582031 65.765625 112.683594 65.738281 115.1875 C 65.726562 116.199219 65.9375 116.796875 66.949219 117.386719 C 70.824219 119.664062 74.628906 122.074219 78.378906 124.558594 C 80.578125 126.015625 82.574219 125.976562 84.742188 124.550781 C 87.972656 122.421875 91.1875 120.238281 94.574219 118.382812 C 96.757812 117.1875 97.644531 115.742188 97.007812 113.363281 Z M 97.007812 113.363281 " fill-opacity="1" fill-rule="nonzero"/><g clip-path="url(#2bdd756dba)"><path fill="#4001be" d="M 130.613281 51.125 C 130.664062 50.277344 130.671875 49.449219 130.613281 48.640625 C 130.613281 48.582031 130.613281 48.527344 130.613281 48.472656 C 130.3125 43.421875 127.914062 39.597656 123.75 36.847656 C 119.144531 33.808594 114.574219 30.710938 109.855469 27.859375 C 107.925781 26.695312 106.0625 25.363281 103.902344 24.550781 C 103.890625 24.542969 103.875 24.535156 103.863281 24.527344 C 103.203125 24.179688 102.578125 24.039062 102.003906 24.066406 C 101.085938 24.007812 100.441406 24.34375 100.054688 25.144531 C 99.648438 25.703125 99.382812 26.460938 99.332031 27.375 C 99.316406 27.621094 99.679688 109.132812 99.597656 114.578125 C 100.042969 115.257812 100.5 114.808594 100.898438 114.554688 C 107.046875 110.597656 113.183594 106.628906 119.320312 102.660156 C 125.226562 99.738281 129.980469 95.816406 130.570312 88.695312 C 130.808594 85.808594 130.609375 54.078125 130.613281 51.125 Z M 130.613281 51.125 " fill-opacity="1" fill-rule="nonzero"/></g></svg>