<svg xmlns="http://www.w3.org/2000/svg" xmlns:xlink="http://www.w3.org/1999/xlink" width="600" zoomAndPan="magnify" viewBox="0 0 450 149.999998" height="200" preserveAspectRatio="xMidYMid meet" version="1.0"><defs><g/><clipPath id="7fba855146"><path d="M 119 34 L 381.761719 34 L 381.761719 92 L 119 92 Z M 119 34 " clip-rule="nonzero"/></clipPath><clipPath id="bf71231108"><rect x="0" width="263" y="0" height="58"/></clipPath><clipPath id="9a31545e9f"><path d="M 0.28125 27 L 32 27 L 32 92 L 0.28125 92 Z M 0.28125 27 " clip-rule="nonzero"/></clipPath><clipPath id="32661546dc"><path d="M 67 1 L 97.699219 1 L 97.699219 92 L 67 92 Z M 67 1 " clip-rule="nonzero"/></clipPath><clipPath id="60498e2989"><rect x="0" width="382" y="0" height="103"/></clipPath></defs><g transform="matrix(1, 0, 0, 1, 32, 23)"><g clip-path="url(#60498e2989)"><g clip-path="url(#7fba855146)"><g transform="matrix(1, 0, 0, 1, 119, 34)"><g clip-path="url(#bf71231108)"><g fill="#ffffff" fill-opacity="1"><g transform="translate(0.355722, 45.317102)"><g><path d="M 19.453125 0.96875 C 16.390625 0.96875 13.757812 0.570312 11.5625 -0.21875 C 9.363281 -1.007812 7.570312 -2.066406 6.1875 -3.390625 C 4.800781 -4.722656 3.773438 -6.203125 3.109375 -7.828125 C 2.453125 -9.460938 2.125 -11.113281 2.125 -12.78125 L 9.9375 -12.78125 C 9.9375 -11.46875 10.304688 -10.265625 11.046875 -9.171875 C 11.785156 -8.085938 12.863281 -7.222656 14.28125 -6.578125 C 15.707031 -5.929688 17.421875 -5.609375 19.421875 -5.609375 C 25.753906 -5.609375 28.921875 -7.726562 28.921875 -11.96875 C 28.921875 -13.28125 28.515625 -14.347656 27.703125 -15.171875 C 26.890625 -16.003906 25.75 -16.675781 24.28125 -17.1875 C 22.820312 -17.695312 21.097656 -18.140625 19.109375 -18.515625 C 17.691406 -18.804688 16.234375 -19.160156 14.734375 -19.578125 C 13.242188 -19.992188 11.8125 -20.515625 10.4375 -21.140625 C 9.070312 -21.773438 7.847656 -22.550781 6.765625 -23.46875 C 5.679688 -24.382812 4.820312 -25.488281 4.1875 -26.78125 C 3.550781 -28.082031 3.234375 -29.617188 3.234375 -31.390625 C 3.234375 -33.710938 3.789062 -35.789062 4.90625 -37.625 C 6.019531 -39.46875 7.753906 -40.925781 10.109375 -42 C 12.472656 -43.070312 15.492188 -43.609375 19.171875 -43.609375 C 22.722656 -43.609375 25.679688 -43.078125 28.046875 -42.015625 C 30.421875 -40.953125 32.207031 -39.457031 33.40625 -37.53125 C 34.613281 -35.613281 35.21875 -33.378906 35.21875 -30.828125 L 27.421875 -30.828125 C 27.421875 -31.941406 27.125 -32.945312 26.53125 -33.84375 C 25.945312 -34.738281 25.046875 -35.453125 23.828125 -35.984375 C 22.609375 -36.515625 21.023438 -36.78125 19.078125 -36.78125 C 17.472656 -36.78125 16.144531 -36.628906 15.09375 -36.328125 C 14.050781 -36.023438 13.234375 -35.613281 12.640625 -35.09375 C 12.046875 -34.570312 11.628906 -33.988281 11.390625 -33.34375 C 11.148438 -32.695312 11.03125 -32.035156 11.03125 -31.359375 C 11.03125 -29.585938 11.914062 -28.226562 13.6875 -27.28125 C 15.46875 -26.34375 18.144531 -25.582031 21.71875 -25 C 23.675781 -24.644531 25.554688 -24.160156 27.359375 -23.546875 C 29.171875 -22.929688 30.785156 -22.125 32.203125 -21.125 C 33.628906 -20.132812 34.753906 -18.890625 35.578125 -17.390625 C 36.398438 -15.890625 36.8125 -14.070312 36.8125 -11.9375 C 36.8125 -9.175781 36.097656 -6.832031 34.671875 -4.90625 C 33.242188 -2.988281 31.226562 -1.53125 28.625 -0.53125 C 26.019531 0.46875 22.960938 0.96875 19.453125 0.96875 Z M 19.453125 0.96875 "/></g></g></g><g fill="#ffffff" fill-opacity="1"><g transform="translate(39.137158, 45.317102)"><g><path d="M 6.953125 11 L 1.53125 11 L 1.53125 4.734375 L 6.890625 4.734375 C 8.015625 4.734375 8.9375 4.550781 9.65625 4.1875 C 10.382812 3.820312 11 3.257812 11.5 2.5 C 12 1.75 12.46875 0.78125 12.90625 -0.40625 L 13.28125 -1.5 L 0.9375 -32.21875 L 8.9375 -32.21875 L 16.515625 -12.71875 L 17.328125 -9.40625 L 18.171875 -12.6875 L 25.625 -32.1875 L 33.71875 -32.21875 L 21.15625 -0.71875 C 20.207031 1.675781 19.265625 3.640625 18.328125 5.171875 C 17.390625 6.710938 16.378906 7.90625 15.296875 8.75 C 14.222656 9.601562 13.015625 10.191406 11.671875 10.515625 C 10.328125 10.835938 8.753906 11 6.953125 11 Z M 6.953125 11 "/></g></g></g><g fill="#ffffff" fill-opacity="1"><g transform="translate(73.125735, 45.317102)"><g><path d="M 12.03125 0 L 4.453125 0 L 4.453125 -32.21875 L 11.65625 -32.21875 L 11.65625 -27.203125 C 12.28125 -28.367188 13.132812 -29.398438 14.21875 -30.296875 C 15.3125 -31.191406 16.578125 -31.894531 18.015625 -32.40625 C 19.453125 -32.925781 21 -33.1875 22.65625 -33.1875 C 26.976562 -33.1875 30.210938 -31.8125 32.359375 -29.0625 C 34.515625 -26.3125 35.59375 -22.410156 35.59375 -17.359375 L 35.59375 0 L 28.015625 0 L 28.015625 -17.203125 C 28.015625 -20.398438 27.34375 -22.695312 26 -24.09375 C 24.664062 -25.488281 22.851562 -26.1875 20.5625 -26.1875 C 19.070312 -26.1875 17.675781 -25.8125 16.375 -25.0625 C 15.082031 -24.3125 14.035156 -23.210938 13.234375 -21.765625 C 12.429688 -20.328125 12.03125 -18.554688 12.03125 -16.453125 Z M 12.03125 0 "/></g></g></g><g fill="#ffffff" fill-opacity="1"><g transform="translate(112.909599, 45.317102)"><g><path d="M 17.328125 0.96875 C 15.148438 0.96875 13.132812 0.53125 11.28125 -0.34375 C 9.4375 -1.21875 7.832031 -2.4375 6.46875 -4 C 5.101562 -5.570312 4.039062 -7.390625 3.28125 -9.453125 C 2.53125 -11.523438 2.15625 -13.742188 2.15625 -16.109375 C 2.15625 -18.460938 2.535156 -20.664062 3.296875 -22.71875 C 4.066406 -24.78125 5.132812 -26.59375 6.5 -28.15625 C 7.863281 -29.726562 9.460938 -30.957031 11.296875 -31.84375 C 13.140625 -32.738281 15.140625 -33.1875 17.296875 -33.1875 C 19.929688 -33.1875 22.269531 -32.613281 24.3125 -31.46875 C 26.363281 -30.332031 27.898438 -28.765625 28.921875 -26.765625 L 28.921875 -32.21875 L 36.125 -32.21875 L 36.125 0 L 28.921875 0 L 28.921875 -5.421875 C 27.878906 -3.410156 26.335938 -1.84375 24.296875 -0.71875 C 22.265625 0.40625 19.941406 0.96875 17.328125 0.96875 Z M 19.140625 -6.046875 C 20.460938 -6.046875 21.695312 -6.300781 22.84375 -6.8125 C 23.988281 -7.320312 24.992188 -8.03125 25.859375 -8.9375 C 26.734375 -9.851562 27.410156 -10.921875 27.890625 -12.140625 C 28.367188 -13.359375 28.609375 -14.679688 28.609375 -16.109375 C 28.609375 -17.503906 28.363281 -18.8125 27.875 -20.03125 C 27.382812 -21.257812 26.707031 -22.332031 25.84375 -23.25 C 24.988281 -24.164062 23.988281 -24.878906 22.84375 -25.390625 C 21.695312 -25.898438 20.460938 -26.15625 19.140625 -26.15625 C 17.410156 -26.15625 15.828125 -25.738281 14.390625 -24.90625 C 12.960938 -24.070312 11.820312 -22.898438 10.96875 -21.390625 C 10.113281 -19.890625 9.6875 -18.128906 9.6875 -16.109375 C 9.6875 -14.015625 10.117188 -12.210938 10.984375 -10.703125 C 11.847656 -9.203125 13 -8.050781 14.4375 -7.25 C 15.882812 -6.445312 17.453125 -6.046875 19.140625 -6.046875 Z M 19.140625 -6.046875 "/></g></g></g><g fill="#ffffff" fill-opacity="1"><g transform="translate(153.47661, 45.317102)"><g><path d="M 12.03125 11 L 4.453125 11 L 4.453125 -32.21875 L 11.65625 -32.21875 L 11.65625 -26.796875 C 12.820312 -28.734375 14.375 -30.273438 16.3125 -31.421875 C 18.257812 -32.578125 20.394531 -33.15625 22.71875 -33.15625 C 25.007812 -33.15625 27.109375 -32.707031 29.015625 -31.8125 C 30.929688 -30.925781 32.585938 -29.703125 33.984375 -28.140625 C 35.390625 -26.585938 36.476562 -24.78125 37.25 -22.71875 C 38.03125 -20.664062 38.421875 -18.460938 38.421875 -16.109375 C 38.421875 -13.742188 38.03125 -11.523438 37.25 -9.453125 C 36.476562 -7.390625 35.382812 -5.570312 33.96875 -4 C 32.5625 -2.4375 30.910156 -1.21875 29.015625 -0.34375 C 27.128906 0.53125 25.0625 0.96875 22.8125 0.96875 C 21.25 0.96875 19.765625 0.710938 18.359375 0.203125 C 16.960938 -0.304688 15.707031 -1.023438 14.59375 -1.953125 C 13.488281 -2.890625 12.582031 -3.972656 11.875 -5.203125 L 12.03125 -1.46875 Z M 21.4375 -6.015625 C 23.144531 -6.015625 24.710938 -6.421875 26.140625 -7.234375 C 27.578125 -8.046875 28.726562 -9.207031 29.59375 -10.71875 C 30.457031 -12.238281 30.890625 -14.035156 30.890625 -16.109375 C 30.890625 -18.128906 30.460938 -19.890625 29.609375 -21.390625 C 28.753906 -22.898438 27.609375 -24.070312 26.171875 -24.90625 C 24.742188 -25.738281 23.15625 -26.15625 21.40625 -26.15625 C 20.082031 -26.15625 18.851562 -25.898438 17.71875 -25.390625 C 16.582031 -24.878906 15.578125 -24.164062 14.703125 -23.25 C 13.835938 -22.332031 13.160156 -21.265625 12.671875 -20.046875 C 12.179688 -18.835938 11.9375 -17.523438 11.9375 -16.109375 C 11.9375 -14.640625 12.1875 -13.289062 12.6875 -12.0625 C 13.1875 -10.832031 13.875 -9.757812 14.75 -8.84375 C 15.632812 -7.9375 16.648438 -7.238281 17.796875 -6.75 C 18.941406 -6.257812 20.15625 -6.015625 21.4375 -6.015625 Z M 21.4375 -6.015625 "/></g></g></g><g fill="#ffffff" fill-opacity="1"><g transform="translate(194.043621, 45.317102)"><g><path d="M 16.046875 0.96875 C 13.679688 0.96875 11.625 0.65625 9.875 0.03125 C 8.132812 -0.59375 6.695312 -1.4375 5.5625 -2.5 C 4.425781 -3.570312 3.578125 -4.773438 3.015625 -6.109375 C 2.460938 -7.441406 2.1875 -8.820312 2.1875 -10.25 L 9.46875 -10.21875 C 9.53125 -8.75 10.113281 -7.519531 11.21875 -6.53125 C 12.320312 -5.539062 13.953125 -5.046875 16.109375 -5.046875 C 18.066406 -5.046875 19.507812 -5.421875 20.4375 -6.171875 C 21.375 -6.921875 21.84375 -7.90625 21.84375 -9.125 C 21.84375 -10.039062 21.578125 -10.757812 21.046875 -11.28125 C 20.523438 -11.800781 19.757812 -12.210938 18.75 -12.515625 C 17.738281 -12.816406 16.503906 -13.070312 15.046875 -13.28125 C 13.492188 -13.488281 12.019531 -13.8125 10.625 -14.25 C 9.238281 -14.695312 8.015625 -15.304688 6.953125 -16.078125 C 5.890625 -16.847656 5.050781 -17.816406 4.4375 -18.984375 C 3.820312 -20.160156 3.515625 -21.582031 3.515625 -23.25 C 3.515625 -25.226562 3.976562 -26.957031 4.90625 -28.4375 C 5.832031 -29.925781 7.195312 -31.085938 9 -31.921875 C 10.8125 -32.765625 13.023438 -33.1875 15.640625 -33.1875 C 18.222656 -33.1875 20.488281 -32.75 22.4375 -31.875 C 24.394531 -31.007812 25.914062 -29.796875 27 -28.234375 C 28.09375 -26.679688 28.640625 -24.882812 28.640625 -22.84375 L 21.21875 -22.90625 C 21.132812 -24.09375 20.625 -25.066406 19.6875 -25.828125 C 18.757812 -26.597656 17.421875 -26.984375 15.671875 -26.984375 C 14.035156 -26.984375 12.84375 -26.628906 12.09375 -25.921875 C 11.34375 -25.222656 10.96875 -24.382812 10.96875 -23.40625 C 10.96875 -22.613281 11.144531 -21.972656 11.5 -21.484375 C 11.851562 -20.992188 12.515625 -20.582031 13.484375 -20.25 C 14.460938 -19.925781 15.867188 -19.617188 17.703125 -19.328125 C 19.367188 -19.078125 20.921875 -18.742188 22.359375 -18.328125 C 23.804688 -17.910156 25.066406 -17.34375 26.140625 -16.625 C 27.222656 -15.90625 28.066406 -14.972656 28.671875 -13.828125 C 29.273438 -12.691406 29.578125 -11.269531 29.578125 -9.5625 C 29.578125 -7.195312 28.984375 -5.234375 27.796875 -3.671875 C 26.617188 -2.117188 25.007812 -0.957031 22.96875 -0.1875 C 20.9375 0.582031 18.628906 0.96875 16.046875 0.96875 Z M 16.046875 0.96875 "/></g></g></g><g fill="#ffffff" fill-opacity="1"><g transform="translate(225.43215, 45.317102)"><g><path d="M 35.09375 -16.671875 C 35.09375 -16.273438 35.082031 -15.898438 35.0625 -15.546875 C 35.039062 -15.191406 35 -14.707031 34.9375 -14.09375 L 9.78125 -14.09375 C 10.050781 -12.34375 10.609375 -10.847656 11.453125 -9.609375 C 12.296875 -8.378906 13.34375 -7.4375 14.59375 -6.78125 C 15.851562 -6.125 17.222656 -5.796875 18.703125 -5.796875 C 20.628906 -5.796875 22.1875 -6.175781 23.375 -6.9375 C 24.5625 -7.695312 25.425781 -8.757812 25.96875 -10.125 L 34.25 -10.125 C 33.851562 -8.675781 33.195312 -7.285156 32.28125 -5.953125 C 31.375 -4.617188 30.265625 -3.429688 28.953125 -2.390625 C 27.640625 -1.359375 26.128906 -0.539062 24.421875 0.0625 C 22.722656 0.664062 20.867188 0.96875 18.859375 0.96875 C 16.441406 0.96875 14.210938 0.523438 12.171875 -0.359375 C 10.140625 -1.242188 8.375 -2.46875 6.875 -4.03125 C 5.382812 -5.601562 4.222656 -7.421875 3.390625 -9.484375 C 2.566406 -11.554688 2.15625 -13.765625 2.15625 -16.109375 C 2.15625 -18.460938 2.566406 -20.664062 3.390625 -22.71875 C 4.222656 -24.78125 5.382812 -26.59375 6.875 -28.15625 C 8.375 -29.726562 10.140625 -30.957031 12.171875 -31.84375 C 14.210938 -32.738281 16.441406 -33.1875 18.859375 -33.1875 C 21.285156 -33.1875 23.492188 -32.742188 25.484375 -31.859375 C 27.484375 -30.984375 29.195312 -29.773438 30.625 -28.234375 C 32.0625 -26.703125 33.164062 -24.941406 33.9375 -22.953125 C 34.707031 -20.972656 35.09375 -18.878906 35.09375 -16.671875 Z M 10.09375 -19.953125 L 27.359375 -19.953125 C 27.253906 -21.171875 26.800781 -22.273438 26 -23.265625 C 25.207031 -24.253906 24.1875 -25.050781 22.9375 -25.65625 C 21.6875 -26.269531 20.316406 -26.578125 18.828125 -26.578125 C 17.554688 -26.578125 16.332031 -26.335938 15.15625 -25.859375 C 13.988281 -25.390625 12.960938 -24.671875 12.078125 -23.703125 C 11.191406 -22.734375 10.53125 -21.484375 10.09375 -19.953125 Z M 10.09375 -19.953125 "/></g></g></g></g></g></g><g clip-path="url(#9a31545e9f)"><path fill="#01d7ff" d="M 26.449219 41.71875 C 25.84375 41.214844 6.785156 28.660156 4.90625 27.664062 C 2.546875 26.410156 0.535156 27.761719 0.375 30.511719 C 0.339844 31.152344 0.542969 61.820312 0.554688 63.886719 C 0.300781 67.925781 1.511719 71.433594 4.363281 74.335938 C 5.746094 75.757812 31.195312 91.769531 31.222656 91.71875 C 31.640625 91.335938 31.796875 57.636719 31.511719 55.742188 C 32.242188 50.195312 30.867188 45.402344 26.449219 41.71875 Z M 26.449219 41.71875 " fill-opacity="1" fill-rule="nonzero"/></g><path fill="#048fcb" d="M 65.003906 90.351562 C 65.042969 85.089844 65.121094 44.800781 65.101562 44.398438 C 64.917969 39.832031 63.0625 36.054688 59.28125 33.53125 C 52.761719 29.183594 38.414062 20.253906 37.933594 20.066406 C 37.386719 19.820312 36.859375 19.714844 36.375 19.738281 C 35.933594 19.742188 35.546875 19.855469 35.21875 20.074219 C 34.351562 20.578125 33.769531 21.621094 33.6875 23.042969 C 33.65625 23.578125 33.765625 89.671875 33.738281 92.175781 C 33.726562 93.183594 33.9375 93.785156 34.949219 94.375 C 38.824219 96.652344 42.628906 99.058594 46.378906 101.542969 C 48.574219 103 50.574219 102.960938 52.738281 101.535156 C 55.972656 99.40625 59.183594 97.226562 62.570312 95.371094 C 64.753906 94.175781 65.640625 92.730469 65.003906 90.351562 Z M 65.003906 90.351562 " fill-opacity="1" fill-rule="nonzero"/><g clip-path="url(#32661546dc)"><path fill="#4001be" d="M 98.605469 28.121094 C 98.65625 27.273438 98.660156 26.445312 98.605469 25.636719 C 98.605469 25.582031 98.605469 25.523438 98.605469 25.46875 C 98.304688 20.417969 95.90625 16.59375 91.742188 13.84375 C 87.136719 10.804688 82.566406 7.707031 77.847656 4.859375 C 75.917969 3.695312 74.058594 2.359375 71.898438 1.550781 C 71.886719 1.542969 71.867188 1.535156 71.855469 1.527344 C 71.199219 1.179688 70.570312 1.039062 70 1.066406 C 69.082031 1.007812 68.4375 1.339844 68.050781 2.144531 C 67.640625 2.703125 67.378906 3.460938 67.328125 4.375 C 67.3125 4.621094 67.675781 86.125 67.59375 91.566406 C 68.039062 92.246094 68.496094 91.796875 68.894531 91.542969 C 75.039062 87.585938 81.175781 83.617188 87.316406 79.652344 C 93.21875 76.730469 97.96875 72.808594 98.558594 65.6875 C 98.800781 62.800781 98.601562 31.074219 98.605469 28.121094 Z M 98.605469 28.121094 " fill-opacity="1" fill-rule="nonzero"/></g></g></g></svg>