<svg xmlns="http://www.w3.org/2000/svg" xmlns:xlink="http://www.w3.org/1999/xlink" width="600" zoomAndPan="magnify" viewBox="0 0 450 149.999998" height="200" preserveAspectRatio="xMidYMid meet" version="1.0"><defs><g/><clipPath id="693a260f1a"><path d="M 138 39 L 445.199219 39 L 445.199219 106 L 138 106 Z M 138 39 " clip-rule="nonzero"/></clipPath><clipPath id="e12b249e0c"><rect x="0" width="308" y="0" height="67"/></clipPath><clipPath id="4acf39b1c9"><path d="M 38 22 L 76 22 L 76 119.398438 L 38 119.398438 Z M 38 22 " clip-rule="nonzero"/></clipPath><clipPath id="fa8fff9c7d"><path d="M 78 0.457031 L 113.738281 0.457031 L 113.738281 107 L 78 107 Z M 78 0.457031 " clip-rule="nonzero"/></clipPath><clipPath id="263d5b3578"><rect x="0" width="446" y="0" height="120"/></clipPath></defs><g transform="matrix(1, 0, 0, 1, 0, 15)"><g clip-path="url(#263d5b3578)"><g clip-path="url(#693a260f1a)"><g transform="matrix(1, 0, 0, 1, 138, 39)"><g clip-path="url(#e12b249e0c)"><g fill="#ffffff" fill-opacity="1"><g transform="translate(1.020289, 52.892703)"><g><path d="M 22.71875 1.140625 C 19.132812 1.140625 16.0625 0.675781 13.5 -0.25 C 10.9375 -1.175781 8.84375 -2.414062 7.21875 -3.96875 C 5.601562 -5.519531 4.410156 -7.242188 3.640625 -9.140625 C 2.867188 -11.046875 2.484375 -12.972656 2.484375 -14.921875 L 11.59375 -14.921875 C 11.59375 -13.390625 12.023438 -11.988281 12.890625 -10.71875 C 13.753906 -9.445312 15.015625 -8.429688 16.671875 -7.671875 C 18.335938 -6.921875 20.34375 -6.546875 22.6875 -6.546875 C 30.070312 -6.546875 33.765625 -9.019531 33.765625 -13.96875 C 33.765625 -15.507812 33.285156 -16.757812 32.328125 -17.71875 C 31.378906 -18.6875 30.050781 -19.46875 28.34375 -20.0625 C 26.644531 -20.664062 24.632812 -21.1875 22.3125 -21.625 C 20.65625 -21.957031 18.953125 -22.367188 17.203125 -22.859375 C 15.460938 -23.347656 13.789062 -23.957031 12.1875 -24.6875 C 10.59375 -25.425781 9.160156 -26.332031 7.890625 -27.40625 C 6.628906 -28.476562 5.625 -29.769531 4.875 -31.28125 C 4.132812 -32.789062 3.765625 -34.582031 3.765625 -36.65625 C 3.765625 -39.363281 4.414062 -41.789062 5.71875 -43.9375 C 7.03125 -46.082031 9.0625 -47.78125 11.8125 -49.03125 C 14.570312 -50.289062 18.097656 -50.921875 22.390625 -50.921875 C 26.535156 -50.921875 29.988281 -50.296875 32.75 -49.046875 C 35.519531 -47.804688 37.609375 -46.0625 39.015625 -43.8125 C 40.421875 -41.570312 41.125 -38.96875 41.125 -36 L 32.015625 -36 C 32.015625 -37.289062 31.671875 -38.457031 30.984375 -39.5 C 30.304688 -40.550781 29.253906 -41.390625 27.828125 -42.015625 C 26.398438 -42.640625 24.550781 -42.953125 22.28125 -42.953125 C 20.40625 -42.953125 18.851562 -42.773438 17.625 -42.421875 C 16.40625 -42.066406 15.445312 -41.582031 14.75 -40.96875 C 14.0625 -40.363281 13.578125 -39.679688 13.296875 -38.921875 C 13.015625 -38.171875 12.875 -37.40625 12.875 -36.625 C 12.875 -34.550781 13.910156 -32.960938 15.984375 -31.859375 C 18.054688 -30.765625 21.179688 -29.875 25.359375 -29.1875 C 27.648438 -28.78125 29.847656 -28.210938 31.953125 -27.484375 C 34.066406 -26.765625 35.953125 -25.828125 37.609375 -24.671875 C 39.265625 -23.515625 40.570312 -22.054688 41.53125 -20.296875 C 42.5 -18.546875 42.984375 -16.425781 42.984375 -13.9375 C 42.984375 -10.71875 42.144531 -7.984375 40.46875 -5.734375 C 38.800781 -3.492188 36.445312 -1.785156 33.40625 -0.609375 C 30.375 0.554688 26.8125 1.140625 22.71875 1.140625 Z M 22.71875 1.140625 "/></g></g></g><g fill="#ffffff" fill-opacity="1"><g transform="translate(46.297614, 52.892703)"><g><path d="M 8.125 12.84375 L 1.796875 12.84375 L 1.796875 5.53125 L 8.046875 5.53125 C 9.367188 5.53125 10.445312 5.316406 11.28125 4.890625 C 12.125 4.460938 12.835938 3.804688 13.421875 2.921875 C 14.003906 2.046875 14.554688 0.914062 15.078125 -0.46875 L 15.515625 -1.75 L 1.09375 -37.609375 L 10.421875 -37.609375 L 19.28125 -14.859375 L 20.234375 -10.96875 L 21.21875 -14.8125 L 29.921875 -37.578125 L 39.359375 -37.609375 L 24.6875 -0.84375 C 23.59375 1.957031 22.492188 4.253906 21.390625 6.046875 C 20.296875 7.847656 19.117188 9.238281 17.859375 10.21875 C 16.609375 11.207031 15.195312 11.890625 13.625 12.265625 C 12.050781 12.648438 10.21875 12.84375 8.125 12.84375 Z M 8.125 12.84375 "/></g></g></g><g fill="#ffffff" fill-opacity="1"><g transform="translate(85.979276, 52.892703)"><g><path d="M 14.046875 0 L 5.1875 0 L 5.1875 -37.609375 L 13.609375 -37.609375 L 13.609375 -31.75 C 14.335938 -33.113281 15.335938 -34.320312 16.609375 -35.375 C 17.878906 -36.425781 19.351562 -37.25 21.03125 -37.84375 C 22.71875 -38.4375 24.523438 -38.734375 26.453125 -38.734375 C 31.492188 -38.734375 35.269531 -37.128906 37.78125 -33.921875 C 40.300781 -30.722656 41.5625 -26.171875 41.5625 -20.265625 L 41.5625 0 L 32.703125 0 L 32.703125 -20.078125 C 32.703125 -23.816406 31.921875 -26.5 30.359375 -28.125 C 28.796875 -29.757812 26.675781 -30.578125 24 -30.578125 C 22.269531 -30.578125 20.644531 -30.140625 19.125 -29.265625 C 17.613281 -28.390625 16.390625 -27.109375 15.453125 -25.421875 C 14.515625 -23.742188 14.046875 -21.671875 14.046875 -19.203125 Z M 14.046875 0 "/></g></g></g><g fill="#ffffff" fill-opacity="1"><g transform="translate(132.426936, 52.892703)"><g><path d="M 20.234375 1.140625 C 17.691406 1.140625 15.34375 0.628906 13.1875 -0.390625 C 11.03125 -1.421875 9.148438 -2.847656 7.546875 -4.671875 C 5.953125 -6.503906 4.71875 -8.628906 3.84375 -11.046875 C 2.96875 -13.460938 2.53125 -16.046875 2.53125 -18.796875 C 2.53125 -21.554688 2.972656 -24.132812 3.859375 -26.53125 C 4.742188 -28.9375 5.984375 -31.050781 7.578125 -32.875 C 9.179688 -34.707031 11.054688 -36.140625 13.203125 -37.171875 C 15.347656 -38.210938 17.675781 -38.734375 20.1875 -38.734375 C 23.257812 -38.734375 25.988281 -38.066406 28.375 -36.734375 C 30.769531 -35.410156 32.566406 -33.578125 33.765625 -31.234375 L 33.765625 -37.609375 L 42.1875 -37.609375 L 42.1875 0 L 33.765625 0 L 33.765625 -6.328125 C 32.546875 -3.984375 30.742188 -2.148438 28.359375 -0.828125 C 25.984375 0.484375 23.273438 1.140625 20.234375 1.140625 Z M 22.359375 -7.0625 C 23.890625 -7.0625 25.328125 -7.359375 26.671875 -7.953125 C 28.015625 -8.554688 29.191406 -9.382812 30.203125 -10.4375 C 31.210938 -11.5 32 -12.742188 32.5625 -14.171875 C 33.125 -15.597656 33.40625 -17.140625 33.40625 -18.796875 C 33.40625 -20.429688 33.117188 -21.960938 32.546875 -23.390625 C 31.972656 -24.816406 31.1875 -26.066406 30.1875 -27.140625 C 29.1875 -28.210938 28.015625 -29.046875 26.671875 -29.640625 C 25.328125 -30.242188 23.890625 -30.546875 22.359375 -30.546875 C 20.328125 -30.546875 18.472656 -30.054688 16.796875 -29.078125 C 15.128906 -28.109375 13.796875 -26.742188 12.796875 -24.984375 C 11.796875 -23.234375 11.296875 -21.171875 11.296875 -18.796875 C 11.296875 -16.359375 11.800781 -14.257812 12.8125 -12.5 C 13.832031 -10.75 15.179688 -9.40625 16.859375 -8.46875 C 18.546875 -7.53125 20.378906 -7.0625 22.359375 -7.0625 Z M 22.359375 -7.0625 "/></g></g></g><g fill="#ffffff" fill-opacity="1"><g transform="translate(179.78892, 52.892703)"><g><path d="M 14.046875 12.84375 L 5.1875 12.84375 L 5.1875 -37.609375 L 13.609375 -37.609375 L 13.609375 -31.28125 C 14.972656 -33.550781 16.789062 -35.351562 19.0625 -36.6875 C 21.332031 -38.03125 23.816406 -38.703125 26.515625 -38.703125 C 29.203125 -38.703125 31.660156 -38.179688 33.890625 -37.140625 C 36.117188 -36.109375 38.050781 -34.679688 39.6875 -32.859375 C 41.320312 -31.046875 42.585938 -28.9375 43.484375 -26.53125 C 44.390625 -24.132812 44.84375 -21.554688 44.84375 -18.796875 C 44.84375 -16.046875 44.390625 -13.460938 43.484375 -11.046875 C 42.585938 -8.628906 41.316406 -6.503906 39.671875 -4.671875 C 38.023438 -2.847656 36.097656 -1.421875 33.890625 -0.390625 C 31.679688 0.628906 29.257812 1.140625 26.625 1.140625 C 24.800781 1.140625 23.070312 0.835938 21.4375 0.234375 C 19.800781 -0.359375 18.335938 -1.195312 17.046875 -2.28125 C 15.753906 -3.375 14.691406 -4.640625 13.859375 -6.078125 L 14.046875 -1.71875 Z M 25.015625 -7.03125 C 27.015625 -7.03125 28.847656 -7.503906 30.515625 -8.453125 C 32.191406 -9.398438 33.535156 -10.757812 34.546875 -12.53125 C 35.566406 -14.300781 36.078125 -16.390625 36.078125 -18.796875 C 36.078125 -21.171875 35.578125 -23.234375 34.578125 -24.984375 C 33.578125 -26.742188 32.238281 -28.109375 30.5625 -29.078125 C 28.894531 -30.054688 27.035156 -30.546875 24.984375 -30.546875 C 23.453125 -30.546875 22.019531 -30.242188 20.6875 -29.640625 C 19.351562 -29.046875 18.179688 -28.210938 17.171875 -27.140625 C 16.160156 -26.066406 15.367188 -24.820312 14.796875 -23.40625 C 14.222656 -22 13.9375 -20.460938 13.9375 -18.796875 C 13.9375 -17.097656 14.226562 -15.523438 14.8125 -14.078125 C 15.394531 -12.640625 16.195312 -11.390625 17.21875 -10.328125 C 18.25 -9.273438 19.4375 -8.460938 20.78125 -7.890625 C 22.125 -7.316406 23.535156 -7.03125 25.015625 -7.03125 Z M 25.015625 -7.03125 "/></g></g></g><g fill="#ffffff" fill-opacity="1"><g transform="translate(227.150903, 52.892703)"><g><path d="M 18.734375 1.140625 C 15.972656 1.140625 13.570312 0.769531 11.53125 0.03125 C 9.5 -0.695312 7.816406 -1.679688 6.484375 -2.921875 C 5.160156 -4.171875 4.175781 -5.570312 3.53125 -7.125 C 2.882812 -8.6875 2.5625 -10.300781 2.5625 -11.96875 L 11.046875 -11.921875 C 11.117188 -10.210938 11.800781 -8.78125 13.09375 -7.625 C 14.382812 -6.46875 16.285156 -5.890625 18.796875 -5.890625 C 21.097656 -5.890625 22.789062 -6.328125 23.875 -7.203125 C 24.957031 -8.085938 25.5 -9.234375 25.5 -10.640625 C 25.5 -11.710938 25.191406 -12.550781 24.578125 -13.15625 C 23.972656 -13.769531 23.078125 -14.253906 21.890625 -14.609375 C 20.710938 -14.960938 19.269531 -15.265625 17.5625 -15.515625 C 15.757812 -15.753906 14.046875 -16.128906 12.421875 -16.640625 C 10.796875 -17.148438 9.359375 -17.859375 8.109375 -18.765625 C 6.867188 -19.671875 5.890625 -20.804688 5.171875 -22.171875 C 4.453125 -23.535156 4.09375 -25.191406 4.09375 -27.140625 C 4.09375 -29.460938 4.632812 -31.488281 5.71875 -33.21875 C 6.8125 -34.945312 8.410156 -36.296875 10.515625 -37.265625 C 12.628906 -38.242188 15.207031 -38.734375 18.25 -38.734375 C 21.28125 -38.734375 23.929688 -38.226562 26.203125 -37.21875 C 28.484375 -36.207031 30.257812 -34.789062 31.53125 -32.96875 C 32.800781 -31.15625 33.4375 -29.054688 33.4375 -26.671875 L 24.765625 -26.734375 C 24.671875 -28.128906 24.078125 -29.269531 22.984375 -30.15625 C 21.898438 -31.050781 20.335938 -31.5 18.296875 -31.5 C 16.390625 -31.5 14.992188 -31.085938 14.109375 -30.265625 C 13.234375 -29.453125 12.796875 -28.472656 12.796875 -27.328125 C 12.796875 -26.398438 13.003906 -25.648438 13.421875 -25.078125 C 13.835938 -24.503906 14.613281 -24.023438 15.75 -23.640625 C 16.882812 -23.265625 18.523438 -22.910156 20.671875 -22.578125 C 22.617188 -22.273438 24.429688 -21.878906 26.109375 -21.390625 C 27.796875 -20.910156 29.265625 -20.25 30.515625 -19.40625 C 31.773438 -18.5625 32.757812 -17.472656 33.46875 -16.140625 C 34.175781 -14.816406 34.53125 -13.15625 34.53125 -11.15625 C 34.53125 -8.40625 33.84375 -6.117188 32.46875 -4.296875 C 31.09375 -2.484375 29.210938 -1.125 26.828125 -0.21875 C 24.453125 0.6875 21.753906 1.140625 18.734375 1.140625 Z M 18.734375 1.140625 "/></g></g></g><g fill="#ffffff" fill-opacity="1"><g transform="translate(263.79701, 52.892703)"><g><path d="M 40.96875 -19.46875 C 40.96875 -19 40.957031 -18.554688 40.9375 -18.140625 C 40.914062 -17.722656 40.867188 -17.164062 40.796875 -16.46875 L 11.40625 -16.46875 C 11.726562 -14.414062 12.382812 -12.671875 13.375 -11.234375 C 14.363281 -9.796875 15.585938 -8.691406 17.046875 -7.921875 C 18.515625 -7.148438 20.113281 -6.765625 21.84375 -6.765625 C 24.082031 -6.765625 25.894531 -7.207031 27.28125 -8.09375 C 28.675781 -8.988281 29.691406 -10.226562 30.328125 -11.8125 L 39.984375 -11.8125 C 39.523438 -10.132812 38.765625 -8.515625 37.703125 -6.953125 C 36.640625 -5.390625 35.335938 -4.003906 33.796875 -2.796875 C 32.265625 -1.585938 30.503906 -0.628906 28.515625 0.078125 C 26.523438 0.785156 24.359375 1.140625 22.015625 1.140625 C 19.191406 1.140625 16.585938 0.625 14.203125 -0.40625 C 11.828125 -1.445312 9.769531 -2.882812 8.03125 -4.71875 C 6.289062 -6.550781 4.9375 -8.671875 3.96875 -11.078125 C 3.007812 -13.492188 2.53125 -16.066406 2.53125 -18.796875 C 2.53125 -21.554688 3.007812 -24.132812 3.96875 -26.53125 C 4.9375 -28.9375 6.289062 -31.050781 8.03125 -32.875 C 9.769531 -34.707031 11.828125 -36.140625 14.203125 -37.171875 C 16.585938 -38.210938 19.191406 -38.734375 22.015625 -38.734375 C 24.847656 -38.734375 27.425781 -38.222656 29.75 -37.203125 C 32.082031 -36.179688 34.082031 -34.773438 35.75 -32.984375 C 37.425781 -31.191406 38.710938 -29.132812 39.609375 -26.8125 C 40.515625 -24.5 40.96875 -22.050781 40.96875 -19.46875 Z M 11.78125 -23.296875 L 31.9375 -23.296875 C 31.8125 -24.710938 31.285156 -26 30.359375 -27.15625 C 29.429688 -28.320312 28.234375 -29.253906 26.765625 -29.953125 C 25.304688 -30.660156 23.710938 -31.015625 21.984375 -31.015625 C 20.492188 -31.015625 19.066406 -30.738281 17.703125 -30.1875 C 16.335938 -29.644531 15.132812 -28.804688 14.09375 -27.671875 C 13.0625 -26.535156 12.289062 -25.078125 11.78125 -23.296875 Z M 11.78125 -23.296875 "/></g></g></g></g></g></g><path fill="#01d7ff" d="M 30.554688 48 C 29.84375 47.40625 7.59375 32.75 5.398438 31.585938 C 2.644531 30.125 0.296875 31.703125 0.113281 34.910156 C 0.0664062 35.660156 0.304688 71.464844 0.320312 73.878906 C 0.0234375 78.59375 1.433594 82.6875 4.769531 86.078125 C 6.382812 87.738281 36.09375 106.429688 36.125 106.371094 C 36.613281 105.925781 36.796875 66.582031 36.464844 64.367188 C 37.316406 57.890625 35.710938 52.300781 30.554688 48 Z M 30.554688 48 " fill-opacity="1" fill-rule="nonzero"/><g clip-path="url(#4acf39b1c9)"><path fill="#048fcb" d="M 75.566406 104.777344 C 75.609375 98.632812 75.703125 51.597656 75.675781 51.125 C 75.464844 45.796875 73.300781 41.382812 68.882812 38.4375 C 61.273438 33.363281 44.519531 22.9375 43.960938 22.71875 C 43.320312 22.429688 42.707031 22.304688 42.140625 22.332031 C 41.625 22.339844 41.175781 22.46875 40.789062 22.726562 C 39.777344 23.316406 39.097656 24.535156 39.003906 26.195312 C 38.964844 26.820312 39.09375 103.984375 39.0625 106.90625 C 39.050781 108.082031 39.296875 108.785156 40.472656 109.472656 C 45 112.132812 49.441406 114.941406 53.816406 117.84375 C 56.382812 119.542969 58.71875 119.496094 61.246094 117.832031 C 65.019531 115.347656 68.769531 112.800781 72.722656 110.636719 C 75.273438 109.238281 76.308594 107.554688 75.566406 104.777344 Z M 75.566406 104.777344 " fill-opacity="1" fill-rule="nonzero"/></g><g clip-path="url(#fa8fff9c7d)"><path fill="#4001be" d="M 114.792969 32.121094 C 114.855469 31.132812 114.859375 30.164062 114.792969 29.222656 C 114.792969 29.15625 114.792969 29.089844 114.792969 29.023438 C 114.445312 23.128906 111.644531 18.664062 106.78125 15.453125 C 101.40625 11.90625 96.070312 8.289062 90.558594 4.960938 C 88.308594 3.601562 86.136719 2.046875 83.613281 1.101562 C 83.601562 1.09375 83.578125 1.082031 83.566406 1.074219 C 82.796875 0.664062 82.066406 0.503906 81.398438 0.535156 C 80.324219 0.46875 79.570312 0.855469 79.121094 1.792969 C 78.644531 2.445312 78.339844 3.328125 78.277344 4.394531 C 78.261719 4.683594 78.6875 99.839844 78.589844 106.191406 C 79.105469 106.984375 79.644531 106.464844 80.109375 106.164062 C 87.28125 101.546875 94.445312 96.914062 101.613281 92.28125 C 108.503906 88.871094 114.054688 84.292969 114.742188 75.980469 C 115.023438 72.609375 114.792969 35.570312 114.792969 32.121094 Z M 114.792969 32.121094 " fill-opacity="1" fill-rule="nonzero"/></g></g></g></svg>