<?xml version="1.0" encoding="UTF-8"?>
<svg id="Layer_1" data-name="Layer 1" xmlns="http://www.w3.org/2000/svg" viewBox="0 0 80 80">
    <defs>
        <style>
            .cls-1 {
            fill: #5700ff;
            }

            .cls-2 {
            fill: #02d7ff;
            }

            .cls-3 {
            fill: #009cdd;
            }
        </style>
    </defs>
    <g transform="translate(-5, -5)">
        <path class="cls-2" d="M31.51,45.27v29.63c0,.27-.3.43-.52.28l-19.57-12.95c-2.35-1.56-3.78-4.27-3.78-7.16v-26.81c0-1.15.93-2.08,2.08-2.08.14,0,.28.02.4.04.14.02.26.06.4.12.02.02.04.02.06.02.12.06.22.12.32.18l16.26,10.68c2.71,1.78,4.34,4.8,4.34,8.04Z"/>
        <path class="cls-1" d="M77.88,17.11l-16.27-10.68c-.1-.06-.2-.12-.32-.18-.02,0-.04,0-.06-.02-.14-.06-.26-.1-.4-.12-.12-.02-.26-.04-.4-.04-1.15,0-2.08.93-2.08,2.08v67.2c0,.3.33.48.58.32l9.98-6.33,7.92-5.02c3.36-2.13,5.39-5.83,5.39-9.8v-29.38c0-3.23-1.63-6.25-4.33-8.02Z"/>
        <path class="cls-3" d="M56.86,65.7v-26.25c0-3.24-1.63-6.26-4.34-8.04l-16.26-10.68c-.1-.06-.2-.12-.32-.18-.02,0-.04,0-.06-.02-.14-.06-.26-.1-.4-.12-.12-.02-.26-.04-.4-.04-1.15,0-2.08.93-2.08,2.08v26.81s0,.01,0,.02v26.96c0,.08.03.21.11.35.07.14.17.22.23.27l9.67,6.48c1.17.79,2.71.8,3.89.03l9.63-6.27c.22-.14.35-.39.35-.65v-10.73s0-.01,0-.02Z"/>
    </g>
</svg>