<svg xmlns="http://www.w3.org/2000/svg" xmlns:xlink="http://www.w3.org/1999/xlink" width="600" zoomAndPan="magnify" viewBox="0 0 450 149.999998" height="200" preserveAspectRatio="xMidYMid meet" version="1.0"><defs><g/><clipPath id="a8f6c56944"><path d="M 32.28125 50 L 64 50 L 64 115 L 32.28125 115 Z M 32.28125 50 " clip-rule="nonzero"/></clipPath><clipPath id="e2cd9dee93"><path d="M 99 24 L 130.53125 24 L 130.53125 115 L 99 115 Z M 99 24 " clip-rule="nonzero"/></clipPath></defs><g fill="#ffffff" fill-opacity="1"><g transform="translate(151.68833, 95.249996)"><g><path d="M 18.640625 0.40625 C 15.609375 0.40625 12.894531 -0.0820312 10.5 -1.0625 C 8.101562 -2.039062 6.1875 -3.492188 4.75 -5.421875 C 3.3125 -7.347656 2.554688 -9.671875 2.484375 -12.390625 L 13.21875 -12.390625 C 13.375 -10.859375 13.90625 -9.6875 14.8125 -8.875 C 15.71875 -8.070312 16.894531 -7.671875 18.34375 -7.671875 C 19.84375 -7.671875 21.023438 -8.015625 21.890625 -8.703125 C 22.753906 -9.390625 23.1875 -10.34375 23.1875 -11.5625 C 23.1875 -12.582031 22.84375 -13.425781 22.15625 -14.09375 C 21.46875 -14.769531 20.617188 -15.320312 19.609375 -15.75 C 18.609375 -16.1875 17.1875 -16.679688 15.34375 -17.234375 C 12.664062 -18.054688 10.476562 -18.878906 8.78125 -19.703125 C 7.09375 -20.523438 5.640625 -21.742188 4.421875 -23.359375 C 3.203125 -24.972656 2.59375 -27.078125 2.59375 -29.671875 C 2.59375 -33.523438 3.988281 -36.546875 6.78125 -38.734375 C 9.570312 -40.921875 13.210938 -42.015625 17.703125 -42.015625 C 22.265625 -42.015625 25.941406 -40.921875 28.734375 -38.734375 C 31.523438 -36.546875 33.019531 -33.507812 33.21875 -29.625 L 22.296875 -29.625 C 22.222656 -30.957031 21.734375 -32.003906 20.828125 -32.765625 C 19.921875 -33.535156 18.757812 -33.921875 17.34375 -33.921875 C 16.125 -33.921875 15.140625 -33.597656 14.390625 -32.953125 C 13.648438 -32.304688 13.28125 -31.375 13.28125 -30.15625 C 13.28125 -28.8125 13.90625 -27.765625 15.15625 -27.015625 C 16.414062 -26.273438 18.382812 -25.472656 21.0625 -24.609375 C 23.738281 -23.703125 25.910156 -22.832031 27.578125 -22 C 29.253906 -21.175781 30.703125 -19.976562 31.921875 -18.40625 C 33.140625 -16.832031 33.75 -14.804688 33.75 -12.328125 C 33.75 -9.972656 33.148438 -7.832031 31.953125 -5.90625 C 30.753906 -3.976562 29.015625 -2.441406 26.734375 -1.296875 C 24.453125 -0.160156 21.753906 0.40625 18.640625 0.40625 Z M 18.640625 0.40625 "/></g></g></g><g fill="#ffffff" fill-opacity="1"><g transform="translate(187.968502, 95.249996)"><g><path d="M 37.28125 -32.921875 L 16.640625 15.640625 L 5.78125 15.640625 L 13.328125 -1.125 L -0.0625 -32.921875 L 11.203125 -32.921875 L 18.828125 -12.328125 L 26.375 -32.921875 Z M 37.28125 -32.921875 "/></g></g></g><g fill="#ffffff" fill-opacity="1"><g transform="translate(225.251543, 95.249996)"><g><path d="M 23.71875 -33.28125 C 27.570312 -33.28125 30.648438 -32.03125 32.953125 -29.53125 C 35.253906 -27.03125 36.40625 -23.597656 36.40625 -19.234375 L 36.40625 0 L 26.375 0 L 26.375 -17.875 C 26.375 -20.082031 25.800781 -21.796875 24.65625 -23.015625 C 23.519531 -24.234375 21.988281 -24.84375 20.0625 -24.84375 C 18.132812 -24.84375 16.597656 -24.234375 15.453125 -23.015625 C 14.316406 -21.796875 13.75 -20.082031 13.75 -17.875 L 13.75 0 L 3.65625 0 L 3.65625 -32.921875 L 13.75 -32.921875 L 13.75 -28.5625 C 14.769531 -30.007812 16.144531 -31.15625 17.875 -32 C 19.601562 -32.851562 21.550781 -33.28125 23.71875 -33.28125 Z M 23.71875 -33.28125 "/></g></g></g><g fill="#ffffff" fill-opacity="1"><g transform="translate(265.012252, 95.249996)"><g><path d="M 1.65625 -16.515625 C 1.65625 -19.898438 2.289062 -22.867188 3.5625 -25.421875 C 4.84375 -27.984375 6.582031 -29.953125 8.78125 -31.328125 C 10.988281 -32.703125 13.453125 -33.390625 16.171875 -33.390625 C 18.484375 -33.390625 20.515625 -32.914062 22.265625 -31.96875 C 24.015625 -31.03125 25.363281 -29.796875 26.3125 -28.265625 L 26.3125 -32.921875 L 36.40625 -32.921875 L 36.40625 0 L 26.3125 0 L 26.3125 -4.65625 C 25.332031 -3.125 23.96875 -1.882812 22.21875 -0.9375 C 20.46875 0 18.429688 0.46875 16.109375 0.46875 C 13.429688 0.46875 10.988281 -0.226562 8.78125 -1.625 C 6.582031 -3.019531 4.84375 -5.003906 3.5625 -7.578125 C 2.289062 -10.160156 1.65625 -13.140625 1.65625 -16.515625 Z M 26.3125 -16.46875 C 26.3125 -18.976562 25.613281 -20.960938 24.21875 -22.421875 C 22.820312 -23.878906 21.117188 -24.609375 19.109375 -24.609375 C 17.109375 -24.609375 15.410156 -23.890625 14.015625 -22.453125 C 12.617188 -21.015625 11.921875 -19.035156 11.921875 -16.515625 C 11.921875 -14.003906 12.617188 -12.007812 14.015625 -10.53125 C 15.410156 -9.050781 17.109375 -8.3125 19.109375 -8.3125 C 21.117188 -8.3125 22.820312 -9.039062 24.21875 -10.5 C 25.613281 -11.957031 26.3125 -13.945312 26.3125 -16.46875 Z M 26.3125 -16.46875 "/></g></g></g><g fill="#ffffff" fill-opacity="1"><g transform="translate(305.067922, 95.249996)"><g><path d="M 13.75 -28.265625 C 14.726562 -29.796875 16.082031 -31.03125 17.8125 -31.96875 C 19.539062 -32.914062 21.566406 -33.390625 23.890625 -33.390625 C 26.609375 -33.390625 29.066406 -32.703125 31.265625 -31.328125 C 33.472656 -29.953125 35.210938 -27.984375 36.484375 -25.421875 C 37.765625 -22.867188 38.40625 -19.898438 38.40625 -16.515625 C 38.40625 -13.140625 37.765625 -10.160156 36.484375 -7.578125 C 35.210938 -5.003906 33.472656 -3.019531 31.265625 -1.625 C 29.066406 -0.226562 26.609375 0.46875 23.890625 0.46875 C 21.609375 0.46875 19.59375 0 17.84375 -0.9375 C 16.09375 -1.882812 14.726562 -3.109375 13.75 -4.609375 L 13.75 15.6875 L 3.65625 15.6875 L 3.65625 -32.921875 L 13.75 -32.921875 Z M 28.140625 -16.515625 C 28.140625 -19.035156 27.441406 -21.015625 26.046875 -22.453125 C 24.648438 -23.890625 22.929688 -24.609375 20.890625 -24.609375 C 18.878906 -24.609375 17.175781 -23.878906 15.78125 -22.421875 C 14.382812 -20.960938 13.6875 -18.976562 13.6875 -16.46875 C 13.6875 -13.945312 14.382812 -11.957031 15.78125 -10.5 C 17.175781 -9.039062 18.878906 -8.3125 20.890625 -8.3125 C 22.890625 -8.3125 24.597656 -9.050781 26.015625 -10.53125 C 27.429688 -12.007812 28.140625 -14.003906 28.140625 -16.515625 Z M 28.140625 -16.515625 "/></g></g></g><g fill="#ffffff" fill-opacity="1"><g transform="translate(345.123591, 95.249996)"><g><path d="M 17.046875 0.46875 C 14.179688 0.46875 11.625 -0.0195312 9.375 -1 C 7.132812 -1.988281 5.363281 -3.335938 4.0625 -5.046875 C 2.769531 -6.753906 2.046875 -8.671875 1.890625 -10.796875 L 11.859375 -10.796875 C 11.972656 -9.660156 12.503906 -8.738281 13.453125 -8.03125 C 14.398438 -7.320312 15.5625 -6.96875 16.9375 -6.96875 C 18.195312 -6.96875 19.171875 -7.210938 19.859375 -7.703125 C 20.546875 -8.191406 20.890625 -8.828125 20.890625 -9.609375 C 20.890625 -10.554688 20.394531 -11.253906 19.40625 -11.703125 C 18.425781 -12.160156 16.832031 -12.664062 14.625 -13.21875 C 12.269531 -13.769531 10.304688 -14.347656 8.734375 -14.953125 C 7.160156 -15.566406 5.800781 -16.53125 4.65625 -17.84375 C 3.519531 -19.164062 2.953125 -20.945312 2.953125 -23.1875 C 2.953125 -25.070312 3.472656 -26.789062 4.515625 -28.34375 C 5.554688 -29.90625 7.085938 -31.132812 9.109375 -32.03125 C 11.140625 -32.9375 13.550781 -33.390625 16.34375 -33.390625 C 20.46875 -33.390625 23.71875 -32.367188 26.09375 -30.328125 C 28.476562 -28.285156 29.847656 -25.570312 30.203125 -22.1875 L 20.890625 -22.1875 C 20.734375 -23.320312 20.226562 -24.222656 19.375 -24.890625 C 18.53125 -25.566406 17.421875 -25.90625 16.046875 -25.90625 C 14.867188 -25.90625 13.960938 -25.675781 13.328125 -25.21875 C 12.703125 -24.769531 12.390625 -24.148438 12.390625 -23.359375 C 12.390625 -22.421875 12.890625 -21.710938 13.890625 -21.234375 C 14.898438 -20.765625 16.460938 -20.296875 18.578125 -19.828125 C 21.023438 -19.191406 23.015625 -18.566406 24.546875 -17.953125 C 26.078125 -17.347656 27.421875 -16.367188 28.578125 -15.015625 C 29.742188 -13.660156 30.347656 -11.84375 30.390625 -9.5625 C 30.390625 -7.632812 29.847656 -5.910156 28.765625 -4.390625 C 27.679688 -2.878906 26.125 -1.691406 24.09375 -0.828125 C 22.070312 0.0351562 19.722656 0.46875 17.046875 0.46875 Z M 17.046875 0.46875 "/></g></g></g><g fill="#ffffff" fill-opacity="1"><g transform="translate(378.041192, 95.249996)"><g><path d="M 34.6875 -16.984375 C 34.6875 -16.046875 34.628906 -15.066406 34.515625 -14.046875 L 11.6875 -14.046875 C 11.84375 -11.992188 12.5 -10.425781 13.65625 -9.34375 C 14.820312 -8.269531 16.25 -7.734375 17.9375 -7.734375 C 20.457031 -7.734375 22.207031 -8.796875 23.1875 -10.921875 L 33.921875 -10.921875 C 33.367188 -8.753906 32.375 -6.804688 30.9375 -5.078125 C 29.507812 -3.347656 27.710938 -1.988281 25.546875 -1 C 23.378906 -0.0195312 20.960938 0.46875 18.296875 0.46875 C 15.066406 0.46875 12.191406 -0.21875 9.671875 -1.59375 C 7.160156 -2.96875 5.195312 -4.929688 3.78125 -7.484375 C 2.363281 -10.046875 1.65625 -13.039062 1.65625 -16.46875 C 1.65625 -19.882812 2.351562 -22.867188 3.75 -25.421875 C 5.144531 -27.984375 7.097656 -29.953125 9.609375 -31.328125 C 12.128906 -32.703125 15.023438 -33.390625 18.296875 -33.390625 C 21.472656 -33.390625 24.300781 -32.71875 26.78125 -31.375 C 29.257812 -30.039062 31.195312 -28.132812 32.59375 -25.65625 C 33.988281 -23.1875 34.6875 -20.296875 34.6875 -16.984375 Z M 24.359375 -19.640625 C 24.359375 -21.378906 23.769531 -22.757812 22.59375 -23.78125 C 21.414062 -24.800781 19.941406 -25.3125 18.171875 -25.3125 C 16.484375 -25.3125 15.054688 -24.816406 13.890625 -23.828125 C 12.734375 -22.847656 12.015625 -21.453125 11.734375 -19.640625 Z M 24.359375 -19.640625 "/></g></g></g><g clip-path="url(#a8f6c56944)"><path fill="#01d7ff" d="M 58.449219 64.726562 C 57.84375 64.21875 38.78125 51.664062 36.902344 50.664062 C 34.542969 49.414062 32.53125 50.765625 32.371094 53.515625 C 32.332031 54.15625 32.539062 84.828125 32.550781 86.894531 C 32.296875 90.9375 33.503906 94.441406 36.359375 97.347656 C 37.746094 98.769531 63.195312 114.78125 63.222656 114.730469 C 63.640625 114.347656 63.796875 80.644531 63.511719 78.75 C 64.242188 73.199219 62.867188 68.410156 58.449219 64.726562 Z M 58.449219 64.726562 " fill-opacity="1" fill-rule="nonzero"/></g><path fill="#048fcb" d="M 97.007812 113.363281 C 97.046875 108.101562 97.125 67.808594 97.105469 67.402344 C 96.921875 62.839844 95.066406 59.058594 91.285156 56.535156 C 84.765625 52.1875 70.414062 43.253906 69.9375 43.070312 C 69.386719 42.820312 68.859375 42.71875 68.375 42.738281 C 67.933594 42.746094 67.546875 42.855469 67.21875 43.074219 C 66.351562 43.582031 65.769531 44.625 65.6875 46.046875 C 65.65625 46.582031 65.765625 112.683594 65.738281 115.1875 C 65.726562 116.199219 65.9375 116.796875 66.949219 117.386719 C 70.824219 119.664062 74.628906 122.074219 78.378906 124.558594 C 80.578125 126.015625 82.574219 125.976562 84.742188 124.550781 C 87.972656 122.421875 91.1875 120.238281 94.574219 118.382812 C 96.757812 117.1875 97.644531 115.742188 97.007812 113.363281 Z M 97.007812 113.363281 " fill-opacity="1" fill-rule="nonzero"/><g clip-path="url(#e2cd9dee93)"><path fill="#4001be" d="M 130.613281 51.125 C 130.664062 50.277344 130.671875 49.449219 130.613281 48.640625 C 130.613281 48.582031 130.613281 48.527344 130.613281 48.472656 C 130.3125 43.421875 127.914062 39.597656 123.75 36.847656 C 119.144531 33.808594 114.574219 30.710938 109.855469 27.859375 C 107.925781 26.695312 106.0625 25.363281 103.902344 24.550781 C 103.890625 24.542969 103.875 24.535156 103.863281 24.527344 C 103.203125 24.179688 102.578125 24.039062 102.003906 24.066406 C 101.085938 24.007812 100.441406 24.34375 100.054688 25.144531 C 99.648438 25.703125 99.382812 26.460938 99.332031 27.375 C 99.316406 27.621094 99.679688 109.132812 99.597656 114.578125 C 100.042969 115.257812 100.5 114.808594 100.898438 114.554688 C 107.046875 110.597656 113.183594 106.628906 119.320312 102.660156 C 125.226562 99.738281 129.980469 95.816406 130.570312 88.695312 C 130.808594 85.808594 130.609375 54.078125 130.613281 51.125 Z M 130.613281 51.125 " fill-opacity="1" fill-rule="nonzero"/></g></svg>